# AST/ASF file generated using VICON BodyLanguage
# -----------------------------------------------
:version 1.10
:name VICON
:units
  mass 1.0
  length 0.45
  angle deg
:documentation
   .ast/.asf automatically generated from VICON data using
   VICON BodyBuilder and BodyLanguage model FoxedUp or BRILLIANT.MOD
:root
   order TX TY TZ RX RY RZ
   axis XYZ
   position 0 0 0  
   orientation 0 0 0 
:bonedata
  begin
     id 1 
     name lhipjoint
     direction 0.588788 -0.725889 0.355548 
     length 2.37778 
     axis 0 0 0  XYZ
  end
  begin
     id 2 
     name lfemur
     direction 0.34202 -0.939693 0  
     length 6.86393  
     axis 0 0 20  XYZ
    dof rx ry rz
    limits (-160.0 20.0)
           (-70.0 70.0)
           (-60.0 70.0)
  end
  begin
     id 3 
     name ltibia
     direction 0.34202 -0.939693 0   
     length 7.32851   
     axis 0 0 20   XYZ
    dof rx
    limits (-10.0 170.0)
  end
  begin
     id 4 
     name lfoot
     direction 0.0626533 -0.172138 0.983078   
     length 1.98929   
     axis -90 7.62852e-016 20   XYZ
    dof rx rz
    limits (-45.0 90.0)
           (-70.0 20.0)
  end
  begin
     id 5 
     name ltoes
     direction 1.53647e-011 -4.21734e-011 1   
     length 1.00479   
     axis -90 7.62852e-016 20   XYZ
    dof rx
    limits (-90.0 20.0)
  end
  begin
     id 6 
     name rhipjoint
     direction -0.59141 -0.724168 0.354705   
     length 2.38343  
     axis 0 0 0  XYZ 
  end
  begin
     id 7 
     name rfemur
     direction -0.34202 -0.939693 0   
     length 6.95589   
     axis 0 0 -20   XYZ
    dof rx ry rz
    limits (-160.0 20.0)
           (-70.0 70.0)
           (-70.0 60.0)
  end
  begin
     id 8 
     name rtibia
     direction -0.34202 -0.939693 0   
     length 7.32327   
     axis 0 0 -20   XYZ
    dof rx
    limits (-10.0 170.0)
 end
 begin
     id 9 
     name rfoot
     direction -0.0660461 -0.18146 0.981178   
     length 1.85272  
     axis -90 -7.62852e-016 -20   XYZ
    dof rx rz
    limits (-45.0 90.0)
           (-20.0 70.0)
  end
  begin
     id 10 
     name rtoes
     direction -1.53586e-011 -4.21988e-011 1   
     length 0.93746   
     axis -90 -7.62852e-016 -20   XYZ
    dof rx
    limits (-90.0 20.0)
  end
  begin
     id 11 
     name lowerback
     direction -0.0107982 0.991059 0.13299   
     length 1.98691   
     axis 0 0 0   XYZ
    dof rx ry rz
    limits (-20.0 45.0)
           (-30.0 30.0)
           (-30.0 30.0)
  end
  begin
     id 12 
     name upperback
     direction 0.0076296 0.999916 0.0104576   
     length 1.99501   
     axis 0 0 0   XYZ
    dof rx ry rz
    limits (-20.0 45.0)
           (-30.0 30.0)
           (-30.0 30.0)
  end
  begin
     id 13 
     name thorax
     direction 0.01176 0.998615 -0.0512909   
     length 2.03144   
     axis 0 0 0   XYZ
    dof rx ry rz
    limits (-20.0 45.0)
           (-30.0 30.0)
           (-30.0 30.0)
  end
  begin
     id 14 
     name lowerneck
     direction -0.0171909 0.999644 0.0204011   
     length 1.71818   
     axis 0 0 0   XYZ
    dof rx ry rz
    limits (-20.0 45.0)
           (-30.0 30.0)
           (-30.0 30.0)
  end
  begin
     id 15 
     name upperneck
     direction 0.0250902 0.997482 -0.0663316   
     length 1.66199   
     axis 0 0 0   XYZ
    dof rx ry rz
    limits (-20.0 45.0)
           (-30.0 30.0)
           (-30.0 30.0)
  end
  begin
     id 16
     name head
     direction 0.00881535 0.99956 -0.0283365  
     length 1.81545  
     axis 0 0 0   XYZ
    dof rx ry rz
    limits (-20.0 45.0)
           (-30.0 30.0)
           (-30.0 30.0)
  end
  begin
     id 17 
     name lclavicle
     direction 0.840411 0.486876 -0.238035  
     length 3.30409  
     axis 0 0 0   XYZ
    dof ry rz
    limits (-20.0 10.0)
           (0.0 20.0)
  end
  begin
     id 18 
     name lhumerus
     direction 1 -4.48977e-011 -5.16239e-027   
     length 4.62672   
     axis 180 -30 -90   XYZ
    dof rx ry rz
    limits (-60.0 90.0)
           (-90.0 90.0)
           (-90.0 90.0)
  end
  begin
     id 19
     name lradius
     direction 1 -4.48977e-011 -8.71171e-027   
     length 3.11018   
     axis 180 -30 -90   XYZ
    dof rx
    limits (-10.0 170.0)
  end
  begin
     id 20
     name lwrist
     direction 1 -4.48912e-011 -1.03764e-026   
     length 1.55509   
     axis 9.09556e-015 90 90   XYZ
    dof ry
    limits (-180.0 0.0)
 end
  begin
     id 21 
     name lhand
     direction 1 -4.49072e-011 -2.07528e-026   
     length 0.743834   
     axis 1.3242e-014 90 90   XYZ
    dof rx rz
    limits (-90.0 90.0)
           (-45.0 45.0)
  end
  begin
     id 22 
     name lfingers
     direction 1 -4.48909e-011 -4.15056e-026   
     length 0.599698   
     axis 2.64841e-014 90 90   XYZ
    dof rx
    limits (0.0 90.0)
  end
  begin
     id 23
     name lthumb
     direction 0.707107 -6.35013e-011 0.707107   
     length 0.86105   
     axis -90 45 2.85299e-015   XYZ
    dof rx rz
    limits (-45.0 45.0)
           (-45.0 45.0)
  end
  begin
     id 24 
     name rclavicle
     direction -0.835208 0.500237 -0.228452   
     length 3.2716  
     axis 0 0 0   XYZ 
    dof ry rz
    limits (-10.0 20.0)
           (-20.0 0.0)
  end
  begin
     id 25 
     name rhumerus
     direction -1 -4.48978e-011 -5.1953e-028  
     length 4.55919   
     axis 180 30 90   XYZ
    dof rx ry rz
    limits (-90.0 60.0)
           (-90.0 90.0)
           (-90.0 90.0)
  end
  begin
     id 26 
     name rradius
     direction -1 -4.48961e-011 -5.99546e-027   
     length 3.22748   
     axis 180 30 90   XYZ
    dof rx
    limits (-10.0 170.0)
  end
  begin
     id 27 
     name rwrist
     direction -1 -4.48986e-011 -1.03764e-026   
     length 1.61374   
     axis 9.09556e-015 -90 -90   XYZ
    dof ry
    limits (-180.0 0.0)
  end
  begin
     id 28
     name rhand
     direction -1 -4.4899e-011 -2.07528e-026   
     length 0.700882   
     axis 1.3242e-014 -90 -90   XYZ
    dof rx rz
    limits (-90.0 90.0)
           (-45.0 45.0)
  end
  begin
     id 29
     name rfingers
     direction -1 -4.48991e-011 -4.15056e-026   
     length 0.565069   
     axis 2.64841e-014 -90 -90   XYZ
    dof rx
    limits (0.0 90.0)
  end
  begin
     id 30
     name rthumb
     direction -0.707107 -6.34804e-011 0.707107   
     length 0.811329   
     axis -90 -45 -2.85299e-015   XYZ
    dof rx rz
    limits (-45.0 45.0)
           (-45.0 45.0)
  end
:hierarchy
  begin
    root lhipjoint rhipjoint lowerback
    lhipjoint lfemur
    lfemur ltibia
    ltibia lfoot
    lfoot ltoes
    rhipjoint rfemur
    rfemur rtibia
    rtibia rfoot
    rfoot rtoes
    lowerback upperback
    upperback thorax
    thorax lowerneck lclavicle rclavicle
    lowerneck upperneck
    upperneck head
    lclavicle lhumerus
    lhumerus lradius
    lradius lwrist
    lwrist lhand lthumb
    lhand lfingers
    rclavicle rhumerus
    rhumerus rradius
    rradius rwrist
    rwrist rhand rthumb
    rhand rfingers
  end

#!OML:ASF F:\VICON\USERDATA\INSTALL\SteveWalk\SteveWalk.ASF
:FULLY-SPECIFIED
:DEGREES
615
root 6.93063 16.5443 19.4781 198.235 -25.1149 -181.964
lowerback -13.657 3.67422 0.349974
upperback -2.28867 4.54786 0.817887
thorax 5.18126 2.14082 1.46311
lowerneck 9.37595 15.041 8.09228
upperneck 3.39141 20.7445 -10.3976
head 1.47179 10.5027 -4.29201
rclavicle 8.95525e-014 7.15625e-015
rhumerus -41.7131 -33.1014 -60.4276
rradius 24.772
rwrist -11.9551
rhand -15.7407 -36.9634
rfingers 7.12502
rthumb 10.4503 -786.684
lclavicle 8.95525e-014 7.15625e-015
lhumerus -29.1745 -7.10505 92.0465
lradius 41.2788
lwrist 2.51851
lhand -19.9527 -22.2871
lfingers 7.12502
lthumb 6.38546 7.59663
rfemur -23.4005 -6.76083 21.9029
rtibia 28.8495
rfoot -26.5734 9.38623
rtoes -8.5255
lfemur -42.9538 3.75627 -20.0017
ltibia 51.757
lfoot -9.75581 13.4037
ltoes 8.0186
616
root 6.92936 16.5398 19.3749 198.138 -24.4262 -181.991
lowerback -13.3784 3.78663 0.338868
upperback -2.28282 4.70856 0.776456
thorax 5.03435 2.22377 1.4352
lowerneck 9.45208 15.157 8.16257
upperneck 3.29828 20.9091 -10.554
head 1.47158 10.5902 -4.34602
rclavicle -2.99171e-014 1.51076e-014
rhumerus -41.1002 -32.0961 -61.522
rradius 25.3634
rwrist -13.1325
rhand -15.5979 -36.8098
rfingers 7.12502
rthumb 10.588 -786.523
lclavicle -2.99171e-014 1.51076e-014
lhumerus -29.1633 -7.24709 91.7634
lradius 40.3163
lwrist 1.9341
lhand -19.3975 -23.7247
lfingers 7.12502
lthumb 6.9214 6.1422
rfemur -22.8437 -6.15124 21.8041
rtibia 28.6636
rfoot -26.7853 9.15398
rtoes -8.88224
lfemur -43.1823 3.68687 -20.5261
ltibia 50.3768
lfoot -9.52979 13.3202
ltoes 6.99531
617
root 6.92297 16.5365 19.277 198.263 -23.611 -182.119
lowerback -13.3432 3.91713 0.260506
upperback -2.29446 4.89687 0.698729
thorax 4.99974 2.31575 1.42708
lowerneck 9.58759 15.267 8.26892
upperneck 3.16645 21.0708 -10.7652
head 1.46025 10.6793 -4.42625
rclavicle 3.3694e-014 1.98785e-014
rhumerus -40.3403 -31.2074 -62.545
rradius 25.866
rwrist -14.3402
rhand -15.4926 -37.1899
rfingers 7.12502
rthumb 10.6896 -786.898
lclavicle 3.3694e-014 1.98785e-014
lhumerus -29.2507 -8.11691 91.9821
lradius 40.3583
lwrist 2.5852
lhand -20.1766 -21.1244
lfingers 7.12502
lthumb 6.16928 8.76574
rfemur -22.5525 -5.78478 21.6087
rtibia 28.5089
rfoot -27.1972 9.20308
rtoes -9.45326
lfemur -43.6184 3.68561 -21.2393
ltibia 48.861
lfoot -9.26455 13.2112
ltoes 3.9609
618
root 6.91716 16.531 19.1786 198.25 -22.9847 -182.025
lowerback -13.4272 4.06417 0.260362
upperback -2.28379 5.08556 0.731701
thorax 5.05053 2.40615 1.50073
lowerneck 9.947 15.3324 8.42479
upperneck 2.90086 21.1801 -11.0453
head 1.38239 10.7519 -4.55977
rclavicle -4.96962e-016 1.51076e-014
rhumerus -39.7461 -30.1949 -63.5108
rradius 26.5674
rwrist -15.6699
rhand -15.4941 -37.8829
rfingers 7.12502
rthumb 10.6882 -787.591
lclavicle -4.96962e-016 1.51076e-014
lhumerus -29.3006 -8.777 92.1507
lradius 39.805
lwrist 2.85668
lhand -21.4114 -21.2048
lfingers 7.12502
lthumb 4.97714 8.71676
rfemur -22.2354 -6.05166 21.7494
rtibia 28.4297
rfoot -27.6984 9.975
rtoes -9.32762
lfemur -43.9605 3.6699 -21.6388
ltibia 47.3066
lfoot -9.50016 12.6576
ltoes 3.09187
619
root 6.91678 16.5181 19.0859 198.203 -22.4342 -182.018
lowerback -13.2593 4.17138 0.230396
upperback -2.30124 5.23456 0.723596
thorax 4.93535 2.48082 1.52075
lowerneck 10.2552 15.3887 8.6069
upperneck 2.70301 21.2814 -11.4148
head 1.34448 10.8185 -4.7137
rclavicle -1.49089e-014 2.22639e-014
rhumerus -39.4064 -29.1755 -64.4104
rradius 27.5672
rwrist -16.9935
rhand -15.565 -38.1902
rfingers 7.12502
rthumb 10.6198 -787.902
lclavicle -1.49089e-014 2.22639e-014
lhumerus -29.3503 -9.23139 92.1308
lradius 39.0019
lwrist 2.96184
lhand -21.2909 -21.3529
lfingers 7.12502
lthumb 5.09352 8.56584
rfemur -21.9372 -6.34053 21.8029
rtibia 28.4638
rfoot -28.0774 10.8906
rtoes -9.04509
lfemur -44.1777 3.49187 -22.0289
ltibia 45.7012
lfoot -9.90073 11.917
ltoes 2.8881
620
root 6.91429 16.504 18.9947 198.419 -22.0844 -182.063
lowerback -13.3134 4.17053 0.198199
upperback -2.31748 5.23264 0.744868
thorax 4.94295 2.47751 1.56367
lowerneck 10.5225 15.4891 8.69007
upperneck 2.39768 21.425 -11.8019
head 1.27763 10.9079 -4.86035
rclavicle -4.28381e-014 -3.73715e-014
rhumerus -38.8733 -28.3358 -65.1945
rradius 28.3703
rwrist -18.1429
rhand -15.6566 -38.4912
rfingers 7.12502
rthumb 10.5314 -788.207
lclavicle -4.28381e-014 -3.73715e-014
lhumerus -29.1162 -9.2373 92.0109
lradius 38.0335
lwrist 2.73498
lhand -21.2615 -20.5371
lfingers 7.12502
lthumb 5.12184 9.38098
rfemur -21.9531 -7.23942 21.9219
rtibia 28.549
rfoot -28.4902 12.4959
rtoes -7.48404
lfemur -44.6506 3.11833 -22.4126
ltibia 44.0221
lfoot -10.315 10.9915
ltoes 4.98053
621
root 6.91027 16.4912 18.893 198.745 -21.7178 -182.335
lowerback -13.5376 4.11796 -0.103961
upperback -2.28747 5.20447 0.723532
thorax 5.0727 2.45656 1.72285
lowerneck 10.7366 15.6422 8.66817
upperneck 2.06805 21.6222 -12.0004
head 1.18704 11.0218 -4.93717
rclavicle -1.70955e-014 1.74931e-014
rhumerus -38.2278 -27.6429 -65.9085
rradius 28.9589
rwrist -19.0688
rhand -15.4957 -38.7888
rfingers 7.12502
rthumb 10.6866 -788.497
lclavicle -1.70955e-014 1.74931e-014
lhumerus -28.9203 -9.46895 91.958
lradius 37.3437
lwrist 2.71391
lhand -20.8996 -19.6144
lfingers 7.12502
lthumb 5.47129 10.295
rfemur -21.9333 -8.29891 21.8351
rtibia 28.5757
rfoot -28.8588 14.0557
rtoes -5.53444
lfemur -45.0761 2.83258 -23.0787
ltibia 42.2262
lfoot -10.1427 10.0562
ltoes 4.99491
622
root 6.90664 16.48 18.7878 198.809 -21.0888 -182.539
lowerback -13.4845 4.18191 -0.407153
upperback -2.26412 5.33944 0.67253
thorax 5.04158 2.52036 1.85796
lowerneck 10.732 15.777 8.66835
upperneck 2.05397 21.8033 -12.0541
head 1.20899 11.1132 -4.94265
rclavicle -9.41245e-014 -3.10104e-014
rhumerus -37.8235 -27.1459 -66.4851
rradius 29.6031
rwrist -19.7639
rhand -15.414 -38.8544
rfingers 7.12502
rthumb 10.7654 -788.559
lclavicle -9.41245e-014 -3.10104e-014
lhumerus -28.9603 -9.98219 92.0341
lradius 36.8048
lwrist 2.90403
lhand -21.1055 -18.8604
lfingers 7.12502
lthumb 5.27249 11.054
rfemur -21.5668 -8.29396 21.6088
rtibia 28.5109
rfoot -29.1071 14.5656
rtoes -4.76886
lfemur -45.2188 2.89631 -23.8215
ltibia 40.2878
lfoot -9.6009 9.29989
ltoes 0.93214
623
root 6.90183 16.4753 18.6802 198.579 -20.5395 -182.235
lowerback -13.2961 4.29304 -0.164722
upperback -2.27492 5.45035 0.708686
thorax 4.94307 2.58003 1.76465
lowerneck 10.6529 15.8993 8.7615
upperneck 2.24229 21.9849 -12.1022
head 1.31198 11.1981 -4.94012
rclavicle -3.02153e-014 -1.11319e-014
rhumerus -37.5546 -26.5117 -67.1682
rradius 30.356
rwrist -20.5707
rhand -15.2395 -39.24
rfingers 7.12502
rthumb 10.9337 -788.935
lclavicle -3.02153e-014 -1.11319e-014
lhumerus -29.0926 -10.2458 91.9042
lradius 36.0766
lwrist 2.99922
lhand -21.3584 -18.8442
lfingers 7.12502
lthumb 5.02832 11.0762
rfemur -20.9724 -8.0923 21.8784
rtibia 28.3293
rfoot -29.3212 14.9106
rtoes -3.78351
lfemur -45.2033 3.08405 -24.0123
ltibia 38.2496
lfoot -9.47329 8.48921
ltoes -2.08765
624
root 6.89753 16.4644 18.5711 198.534 -19.9448 -182.036
lowerback -13.281 4.36198 -0.060329
upperback -2.28797 5.5209 0.751345
thorax 4.9249 2.61475 1.76124
lowerneck 10.7724 16.0676 8.79573
upperneck 2.14756 22.2144 -12.2783
head 1.31383 11.3197 -4.99494
rclavicle 3.97569e-016 -1.11319e-014
rhumerus -37.1114 -25.4689 -67.9575
rradius 30.9382
rwrist -21.7616
rhand -15.1951 -39.1093
rfingers 7.12502
rthumb 10.9766 -788.802
lclavicle 3.97569e-016 -1.11319e-014
lhumerus -29.1979 -10.2191 91.7129
lradius 35.2957
lwrist 2.97067
lhand -21.4503 -19.1398
lfingers 7.12502
lthumb 4.93958 10.7827
rfemur -20.5319 -7.98441 22.0504
rtibia 28.0125
rfoot -29.4711 15.572
rtoes -2.60393
lfemur -45.3109 3.30967 -24.35
ltibia 36.1804
lfoot -9.42615 7.47453
ltoes -3.76787
625
root 6.88856 16.4555 18.4655 198.674 -19.4739 -182.067
lowerback -13.396 4.33237 -0.147143
upperback -2.26565 5.48905 0.787831
thorax 5.00025 2.59532 1.85233
lowerneck 10.6989 16.2486 8.693
upperneck 2.13325 22.442 -12.4023
head 1.34863 11.4312 -4.998
rclavicle -4.18442e-014 1.98785e-014
rhumerus -36.4814 -24.5409 -68.6821
rradius 31.423
rwrist -22.8022
rhand -15.4141 -38.3741
rfingers 7.12502
rthumb 10.7654 -788.078
lclavicle -4.18442e-014 1.98785e-014
lhumerus -29.215 -10.1107 91.5616
lradius 34.6269
lwrist 2.87653
lhand -21.5437 -18.6719
lfingers 7.12502
lthumb 4.84939 11.2526
rfemur -20.1896 -8.15469 22.0239
rtibia 27.5783
rfoot -29.5493 16.5476
rtoes -1.62982
lfemur -45.509 3.4612 -24.9812
ltibia 34.1562
lfoot -9.45974 6.05462
ltoes -4.26288
626
root 6.87701 16.4485 18.3567 198.578 -18.9315 -181.727
lowerback -13.4926 4.43148 0.103944
upperback -2.16939 5.57659 0.906133
thorax 5.16464 2.63896 1.86499
lowerneck 10.63 16.3813 8.64217
upperneck 2.0328 22.6095 -12.5935
head 1.36369 11.5165 -5.03275
rclavicle 6.21202e-014 2.8625e-014
rhumerus -35.883 -23.8085 -69.2731
rradius 31.9696
rwrist -23.5068
rhand -15.139 -38.8169
rfingers 7.12502
rthumb 11.0307 -788.507
lclavicle 6.21202e-014 2.8625e-014
lhumerus -29.1731 -10.1675 91.4775
lradius 33.9632
lwrist 2.75723
lhand -21.6379 -18.3776
lfingers 7.12502
lthumb 4.75839 11.549
rfemur -19.6543 -8.28638 22.3478
rtibia 27.162
rfoot -29.6548 17.4339
rtoes -0.876741
lfemur -45.5932 3.84129 -25.2903
ltibia 32.1717
lfoot -9.62391 4.94557
ltoes -5.30641
627
root 6.86668 16.4418 18.2457 198.441 -18.1815 -181.434
lowerback -13.4997 4.61665 0.269543
upperback -2.09343 5.79458 0.971841
thorax 5.25282 2.74738 1.88483
lowerneck 10.7805 16.5059 8.62938
upperneck 1.78688 22.7682 -12.7551
head 1.30219 11.6079 -5.09244
rclavicle 2.61402e-014 2.62396e-014
rhumerus -35.5431 -23.1394 -69.8244
rradius 32.7641
rwrist -24.3536
rhand -14.2912 -41.1126
rfingers 7.12502
rthumb 11.8483 -790.757
lclavicle 2.61402e-014 2.62396e-014
lhumerus -29.0532 -10.1434 91.3596
lradius 33.077
lwrist 2.50773
lhand -21.5972 -18.7551
lfingers 7.12502
lthumb 4.79768 11.1706
rfemur -18.9819 -7.8861 22.5187
rtibia 26.7307
rfoot -29.7524 17.4992
rtoes -1.42919
lfemur -45.6117 4.41613 -25.7142
ltibia 30.2254
lfoot -9.77938 4.11934
ltoes -5.89432
628
root 6.85433 16.4344 18.141 198.522 -17.5005 -181.364
lowerback -13.4606 4.72251 0.299253
upperback -2.13227 5.92495 0.988868
thorax 5.18837 2.81053 1.90305
lowerneck 10.9068 16.6469 8.47047
upperneck 1.66785 22.9316 -12.7962
head 1.25311 11.6944 -5.09506
rclavicle -3.32964e-014 0
rhumerus -35.6294 -22.4277 -70.3001
rradius 34.2038
rwrist -25.0393
rhand -14.5416 -39.4026
rfingers 7.12502
rthumb 11.6068 -789.061
lclavicle -3.32964e-014 0
lhumerus -29.0378 -9.80722 91.153
lradius 32.2058
lwrist 2.08705
lhand -21.2765 -18.876
lfingers 7.12502
lthumb 5.10736 11.0425
rfemur -18.5093 -7.58522 22.4708
rtibia 26.2557
rfoot -29.6306 17.8843
rtoes -0.998163
lfemur -45.8091 4.97386 -26.4225
ltibia 28.3277
lfoot -9.94932 2.70223
ltoes -3.40376
629
root 6.8414 16.4304 18.0317 198.519 -16.9563 -181.267
lowerback -13.4066 4.77285 0.397687
upperback -2.10128 5.97651 1.02116
thorax 5.1969 2.83737 1.88838
lowerneck 10.6106 16.8247 8.17459
upperneck 1.87759 23.1336 -12.6593
head 1.33432 11.7759 -4.97518
rclavicle 1.8487e-014 -1.90833e-014
rhumerus -35.5037 -21.6803 -70.8335
rradius 35.3255
rwrist -25.7021
rhand -14.293 -40.4713
rfingers 7.12502
rthumb 11.8466 -790.116
lclavicle 1.8487e-014 -1.90833e-014
lhumerus -28.9899 -9.25321 90.8459
lradius 31.3898
lwrist 1.44728
lhand -20.7205 -18.6478
lfingers 7.12502
lthumb 5.64419 11.257
rfemur -17.9253 -7.64988 22.5094
rtibia 25.7545
rfoot -29.4188 18.6402
rtoes -0.0587893
lfemur -45.9411 5.61925 -27.1955
ltibia 26.4826
lfoot -10.0431 0.881751
ltoes -0.899942
